<?xml version="1.0" standalone="no"?>
<!DOCTYPE svg PUBLIC "-//W3C//DTD SVG 20010904//EN"
 "http://www.w3.org/TR/2001/REC-SVG-20010904/DTD/svg10.dtd">
<svg version="1.0" xmlns="http://www.w3.org/2000/svg"
 width="1023.000000pt" height="1023.000000pt" viewBox="0 0 1023.000000 1023.000000"
 preserveAspectRatio="xMidYMid meet">

<g transform="translate(0.000000,1023.000000) scale(0.100000,-0.100000)"
fill="#000000" stroke="none">
<path d="M2285 7375 c-398 -55 -716 -297 -931 -709 -32 -62 -35 -75 -29 -121
3 -29 1 -63 -5 -80 -16 -42 -66 -101 -134 -157 -67 -55 -85 -84 -86 -139 0
-40 31 -89 57 -89 9 0 38 21 65 46 54 51 156 101 221 110 37 5 47 2 90 -31 58
-45 88 -54 153 -48 63 6 240 -33 265 -58 14 -14 17 -29 12 -76 -7 -79 -33
-134 -80 -172 -26 -20 -44 -46 -52 -71 -12 -40 -65 -94 -108 -111 -13 -5 -59
-9 -101 -9 -83 0 -108 9 -212 75 -73 47 -115 58 -149 40 -28 -14 -108 -94
-135 -135 -34 -51 -11 -185 47 -272 22 -32 25 -33 78 -30 44 3 60 -1 82 -18
15 -12 27 -30 27 -41 0 -24 -19 -21 -94 17 -27 13 -50 23 -52 21 -2 -1 12 -20
31 -42 40 -44 38 -34 35 -143 -3 -127 23 -187 120 -282 l76 -75 88 -3 c93 -3
112 -9 161 -50 29 -24 31 -24 156 -18 125 7 126 7 156 -18 17 -14 34 -26 38
-26 5 0 24 17 44 38 28 30 49 41 93 51 31 7 72 23 90 36 18 13 43 32 56 41 21
16 25 16 39 1 37 -37 -30 -155 -121 -212 l-49 -30 -196 -1 c-153 -1 -204 2
-231 14 -19 8 -81 20 -137 28 -118 15 -159 33 -178 77 -11 27 -15 29 -20 14
-6 -14 -14 -16 -39 -11 -29 5 -35 2 -60 -36 l-28 -42 -56 7 c-61 8 -136 41
-193 86 -34 27 -44 29 -119 29 -77 0 -83 2 -111 29 -37 37 -37 50 1 64 l30 11
-31 32 -31 32 27 67 c14 37 25 69 23 71 -2 1 -23 -3 -46 -12 -68 -23 -95 0
-72 60 12 34 4 53 -31 71 -37 20 -132 19 -174 -1 -53 -25 -61 -59 -31 -134 21
-52 26 -80 26 -152 0 -79 -3 -94 -32 -149 -27 -52 -32 -74 -36 -147 -3 -80 -1
-92 25 -142 39 -77 81 -103 155 -98 41 3 65 11 91 31 20 15 46 27 59 27 35 0
125 -45 177 -89 41 -34 54 -39 113 -43 49 -4 82 -14 120 -35 29 -16 76 -38
103 -48 67 -24 134 -71 146 -102 5 -13 9 -41 9 -62 0 -56 -25 -73 -118 -81
-42 -3 -86 -11 -97 -17 -22 -13 -78 -67 -99 -98 -14 -20 -16 -20 -64 -2 -27 9
-68 17 -90 17 -36 0 -43 -4 -81 -55 -44 -58 -76 -74 -111 -55 -18 9 -25 8 -40
-5 -22 -20 -34 -66 -25 -94 5 -18 12 -20 69 -14 60 5 64 4 82 -22 10 -15 40
-51 67 -81 50 -58 61 -99 31 -128 -21 -22 -24 -21 -77 20 -44 34 -76 41 -84
18 -5 -15 67 -73 173 -137 95 -58 166 -87 213 -87 39 0 77 33 85 72 10 54 61
151 102 191 40 41 72 60 135 82 22 8 56 27 77 44 20 16 66 44 102 62 60 30 71
32 180 34 l115 1 3 36 c4 49 22 63 63 49 51 -18 68 -14 75 17 16 76 72 142
121 142 21 0 23 -4 23 -55 0 -52 2 -55 28 -61 15 -3 37 -10 50 -15 41 -17 148
-10 208 12 l58 22 15 -21 c9 -12 24 -33 35 -47 27 -38 75 -65 119 -65 48 0
177 -26 244 -50 79 -27 110 -55 147 -128 25 -48 48 -77 83 -103 84 -64 121
-79 191 -79 79 0 122 25 122 71 0 16 6 44 14 63 15 36 82 96 107 96 9 0 46
-23 84 -51 304 -231 637 -371 1006 -424 162 -23 482 -20 634 5 384 65 702 204
1000 438 39 30 136 122 218 205 l148 151 112 -111 c136 -135 179 -172 327
-283 133 -99 306 -210 469 -300 l114 -63 75 37 c323 160 726 462 960 719 459
504 707 1110 792 1937 16 158 20 265 20 575 0 209 -4 385 -8 391 -4 6 -56 14
-117 18 -183 11 -375 54 -570 126 -33 13 -136 59 -230 102 -438 206 -650 268
-914 268 -267 0 -482 -62 -900 -260 -204 -97 -413 -174 -447 -166 -12 3 -41
22 -65 42 -54 45 -214 149 -301 197 -290 157 -691 257 -1023 257 -178 -1 -465
-46 -635 -102 -98 -31 -255 -96 -344 -140 -75 -37 -254 -152 -343 -219 l-42
-32 -48 54 c-64 73 -131 137 -173 165 -47 31 -310 134 -440 172 -175 51 -269
71 -410 87 -158 18 -270 18 -395 0z m3155 -75 c233 -38 411 -95 610 -194 678
-337 1120 -1005 1159 -1751 5 -82 4 -203 0 -268 -49 -703 -440 -1321 -1061
-1677 -301 -173 -672 -270 -1030 -270 -794 1 -1537 469 -1879 1185 -392 822
-220 1781 432 2410 115 111 173 158 309 248 241 160 542 273 852 322 138 21
461 19 608 -5z m2640 -185 c164 -35 269 -74 600 -222 268 -121 348 -152 485
-188 77 -20 232 -48 315 -57 l25 -3 -1 -340 c0 -253 -5 -377 -17 -484 -83
-703 -277 -1220 -622 -1651 -165 -207 -432 -451 -667 -608 -130 -87 -328 -202
-348 -202 -39 0 -338 187 -512 320 -120 92 -306 258 -363 325 l-48 55 35 58
c20 31 46 77 58 102 12 25 23 46 25 48 1 1 71 -67 156 -151 172 -172 266 -249
449 -371 154 -103 186 -119 215 -112 32 8 304 191 405 273 659 531 973 1256
1007 2321 l6 207 -104 24 c-161 37 -333 100 -584 214 -388 176 -511 215 -710
224 -210 9 -367 -36 -762 -215 -320 -146 -291 -136 -313 -109 -11 12 -46 53
-79 92 -34 38 -61 72 -61 75 0 3 28 16 63 29 34 13 156 66 271 117 365 165
522 219 697 244 88 12 288 4 379 -15z m-5789 -43 c20 -10 59 -38 87 -62 29
-24 76 -51 104 -61 52 -18 53 -19 51 -56 -1 -21 -15 -81 -32 -134 -56 -174
-175 -320 -322 -393 -70 -35 -72 -36 -101 -18 -40 22 -115 107 -156 174 -81
135 -104 279 -76 469 l5 36 72 6 c45 3 95 15 132 31 76 32 182 36 236 8z
m1264 -316 c20 -15 15 -43 -10 -52 -18 -7 -44 21 -45 49 0 21 28 23 55 3z
m-1885 -35 c12 -24 13 -51 1 -51 -19 0 -60 41 -54 55 8 21 40 18 53 -4z m6213
-258 c15 -49 69 -216 120 -373 l93 -285 404 -5 405 -5 -55 -41 c-30 -23 -177
-129 -326 -237 l-272 -197 108 -332 c60 -183 116 -353 124 -377 9 -24 14 -46
12 -49 -3 -2 -71 45 -153 104 -383 280 -486 354 -494 354 -5 0 -151 -104 -325
-231 -174 -126 -318 -228 -320 -226 -2 2 35 123 82 268 130 398 154 473 154
484 0 8 -105 90 -162 126 -5 3 -20 69 -34 145 -13 76 -28 154 -33 172 -7 24
-7 34 2 37 7 3 97 6 201 7 l188 3 64 195 c35 107 89 275 121 373 31 97 59 177
63 177 3 0 18 -39 33 -87z m-6239 -73 c66 -21 85 -35 69 -51 -8 -8 -222 6
-232 16 -9 10 32 44 58 48 14 2 29 5 32 6 4 0 36 -8 73 -19z m1194 -247 c2 -9
-9 -13 -37 -13 -39 0 -57 10 -44 24 12 11 76 2 81 -11z m208 -54 c19 -11 42
-31 53 -45 19 -24 19 -25 -15 -123 -18 -54 -43 -141 -55 -192 -33 -149 -27
-139 -105 -170 -107 -44 -205 -63 -281 -55 -218 22 -393 226 -393 459 0 50 4
61 28 83 24 23 33 25 82 20 222 -24 435 -13 585 28 66 19 63 19 101 -5z m-997
-385 c12 -15 21 -38 21 -53 0 -51 22 -102 67 -158 41 -50 46 -63 53 -123 4
-37 5 -84 1 -106 -6 -34 -11 -40 -51 -56 -25 -9 -55 -17 -68 -17 -31 -1 -92
-33 -121 -65 -14 -14 -30 -26 -37 -26 -7 0 -29 25 -50 55 -20 31 -56 72 -80
91 -35 29 -44 44 -49 78 -8 51 23 122 82 187 54 59 31 60 -32 0 -31 -29 -61
-51 -68 -48 -28 9 -17 44 29 90 48 49 77 58 114 35 16 -10 23 -9 45 12 15 14
41 49 58 78 36 59 56 65 86 26z m348 -186 c9 -7 10 -15 4 -21 -11 -11 -81 20
-81 35 0 13 58 2 77 -14z m-771 -115 c-10 -10 -19 5 -10 18 6 11 8 11 12 0 2
-7 1 -15 -2 -18z m-346 -18 c0 -19 -19 -19 -45 1 -17 12 -18 16 -5 24 18 11
50 -5 50 -25z m1543 -183 c21 -8 42 -23 47 -33 6 -10 31 -30 55 -45 49 -28 55
-39 28 -48 -10 -3 -35 -22 -57 -42 -21 -19 -45 -33 -52 -30 -16 6 -34 46 -43
96 -8 43 -34 47 -41 6 -7 -42 -25 -42 -44 -2 -16 34 -22 107 -9 119 8 9 67 -1
116 -21z m-175 -54 c16 -34 1 -78 -27 -78 -30 0 -45 72 -19 98 17 17 31 10 46
-20z m133 -154 c8 -10 2 -23 -28 -58 -43 -51 -55 -55 -77 -24 -37 52 -5 107
57 100 20 -2 41 -10 48 -18z m199 -29 c0 -8 -4 -15 -10 -15 -5 0 -10 7 -10 15
0 8 5 15 10 15 6 0 10 -7 10 -15z m-2295 -35 c0 -19 -4 -24 -20 -22 -28 5 -39
18 -31 37 10 27 51 15 51 -15z m885 -9 c0 -37 -13 -61 -32 -61 -16 0 -19 5
-13 29 4 19 2 32 -6 37 -9 5 -7 9 7 14 25 10 44 2 44 -19z m1386 -190 c3 -11
9 -10 30 4 31 20 36 16 58 -52 20 -63 20 -63 1 -63 -8 0 -15 5 -15 10 0 24
-20 7 -30 -27 -15 -46 -37 -83 -50 -83 -6 0 -19 15 -30 33 -30 49 -28 173 3
213 l22 29 3 -25 c2 -14 5 -31 8 -39z m-1958 -53 c-5 -14 -47 -27 -65 -20 -7
2 -13 10 -13 18 0 10 13 14 41 14 28 0 39 -4 37 -12z m1871 -96 c-1 -34 -22
-95 -35 -99 -9 -3 -34 51 -34 74 0 17 49 65 60 58 6 -3 10 -18 9 -33z m211
-38 c0 -25 -7 -29 -28 -15 -11 7 -12 12 -1 29 16 25 29 19 29 -14z m70 -170
c0 -8 -10 -14 -25 -14 -28 0 -29 3 -14 31 8 16 13 18 25 8 8 -6 14 -18 14 -25z
m-1662 -160 c2 -27 -2 -45 -13 -54 -23 -19 -45 5 -45 50 0 43 7 52 35 48 16
-2 21 -12 23 -44z m1725 25 c20 -24 106 -183 102 -188 -3 -3 -35 5 -71 18 -61
22 -66 22 -104 7 -22 -9 -62 -16 -89 -16 -43 0 -53 4 -75 31 -36 42 -42 73
-21 105 27 42 69 55 168 51 48 -2 89 -6 90 -8z m-1095 -15 c62 -13 84 -13 116
-4 51 15 67 0 29 -30 -21 -16 -36 -20 -63 -16 -19 3 -70 8 -112 12 -75 7 -98
19 -82 45 7 12 23 11 112 -7z m490 -176 c-6 -18 -48 -37 -64 -31 -21 8 -17 23
9 33 33 13 59 12 55 -2z m118 -3 c-22 -17 -46 -20 -46 -6 0 11 18 19 45 20 20
0 20 0 1 -14z m-246 -44 c0 -5 -14 -21 -31 -35 -47 -40 -133 -32 -99 9 18 22
130 44 130 26z"/>
<path d="M4940 7260 c-303 -32 -569 -116 -827 -263 -936 -534 -1290 -1718
-803 -2687 82 -164 242 -384 374 -516 277 -277 649 -475 1056 -561 117 -25
142 -27 385 -27 243 0 268 2 385 27 556 117 1007 420 1315 882 232 347 347
762 332 1190 -19 526 -223 994 -596 1366 -310 309 -689 503 -1111 570 -145 23
-387 32 -510 19z m420 -85 c644 -75 1226 -483 1513 -1060 128 -257 187 -474
206 -759 23 -345 -40 -666 -193 -981 -427 -880 -1441 -1309 -2370 -1004 -640
210 -1128 734 -1290 1388 -45 180 -51 236 -51 476 1 246 10 322 62 515 91 340
305 689 569 929 167 152 388 289 595 371 311 122 629 164 959 125z"/>
<path d="M4977 7153 c-11 -10 -8 -68 4 -80 7 -7 3 -29 -15 -73 -14 -35 -26
-69 -26 -75 0 -7 -11 -29 -25 -49 -15 -22 -25 -51 -25 -71 l0 -35 76 0 76 0
-4 53 -3 52 48 3 47 3 0 -55 0 -56 59 0 c33 0 66 3 75 6 21 8 22 82 2 90 -8 3
-31 45 -52 92 -31 72 -37 97 -35 145 l2 57 -99 0 c-54 0 -102 -3 -105 -7z
m118 -174 c8 -24 1 -34 -19 -26 -9 4 -12 14 -9 26 7 27 20 27 28 0z"/>
<path d="M4575 7083 c-49 -14 -94 -28 -98 -33 -12 -11 3 -80 18 -80 19 0 58
-135 60 -208 2 -84 9 -90 87 -68 170 47 164 44 183 86 18 40 18 41 -15 161
-29 105 -38 124 -65 145 -39 29 -56 29 -170 -3z m123 -145 c28 -96 30 -118 11
-131 -30 -19 -45 0 -68 87 -25 95 -23 116 12 116 21 0 27 -9 45 -72z"/>
<path d="M5664 7044 c-14 -33 -14 -39 -1 -49 12 -9 11 -22 -12 -97 -29 -99
-42 -118 -65 -99 -10 8 -13 22 -10 41 6 25 3 29 -41 43 l-46 16 -15 -34 c-19
-47 -18 -67 9 -105 16 -25 37 -38 80 -53 105 -35 142 -7 187 141 17 56 36 102
41 102 13 0 41 68 34 80 -3 5 -32 17 -63 26 -31 9 -63 19 -70 21 -7 3 -19 -10
-28 -33z"/>
<path d="M4298 6969 c-32 -16 -58 -33 -58 -37 0 -14 40 -72 49 -72 15 0 94
-169 87 -185 -7 -18 21 -85 34 -85 13 0 130 59 130 65 0 16 -36 75 -45 75 -15
0 -97 165 -93 188 4 23 -22 82 -36 82 -6 -1 -37 -14 -68 -31z"/>
<path d="M5933 6949 c-27 -8 -42 -27 -98 -123 -66 -114 -66 -114 -55 -158 11
-42 17 -48 87 -88 72 -41 76 -42 117 -30 41 11 46 17 104 118 71 126 68 116
59 168 -6 37 -12 43 -80 82 -77 44 -83 46 -134 31z m96 -116 l20 -18 -47 -82
c-49 -87 -64 -96 -101 -65 l-21 17 47 83 c49 86 64 96 102 65z"/>
<path d="M4030 6805 c-36 -26 -66 -49 -67 -50 -2 -1 -6 -22 -9 -47 -6 -44 -4
-47 71 -151 73 -101 79 -106 120 -113 39 -5 49 -2 102 34 75 51 82 60 89 113
4 37 1 49 -19 73 l-23 29 -42 -28 c-23 -15 -42 -29 -42 -31 0 -2 5 -15 12 -29
10 -22 9 -27 -8 -40 -10 -8 -27 -15 -36 -15 -17 0 -118 133 -118 156 0 6 12
19 26 29 25 16 27 16 47 -3 l20 -20 38 25 c45 30 47 38 16 76 -17 22 -34 30
-67 34 -41 5 -50 1 -110 -42z"/>
<path d="M6272 6747 c-12 -13 -21 -34 -21 -48 3 -41 -70 -179 -119 -224 l-45
-42 74 -71 74 -71 28 26 c15 15 27 32 27 39 0 7 44 36 97 63 74 38 100 47 110
39 10 -8 20 -5 38 12 14 13 25 31 25 39 0 9 -25 37 -54 64 l-55 47 -33 -40
c-28 -35 -128 -101 -128 -85 0 15 46 101 57 108 7 4 24 20 38 35 l25 27 -52
52 c-29 29 -55 53 -58 53 -4 0 -16 -10 -28 -23z"/>
<path d="M5073 6458 c-52 -144 -85 -249 -80 -254 1 -1 68 -4 148 -6 l146 -3
-32 95 c-18 52 -48 136 -68 185 -19 50 -37 98 -40 108 -4 9 -10 17 -15 17 -4
0 -31 -64 -59 -142z"/>
<path d="M3783 6572 c-12 -4 -55 -45 -97 -92 l-75 -85 27 -27 c14 -16 35 -28
46 -28 27 0 167 -126 160 -144 -5 -12 43 -56 60 -56 7 0 78 76 90 98 7 11 1
22 -20 39 -16 12 -36 23 -45 23 -9 0 -24 9 -34 20 -15 16 -15 22 -5 35 19 23
38 18 90 -25 26 -22 50 -40 54 -40 10 0 75 74 76 86 0 18 -48 57 -64 51 -8 -3
-22 4 -33 15 -10 11 -33 27 -50 35 -18 7 -33 20 -33 27 0 21 -74 76 -101 75
-13 -1 -34 -4 -46 -7z m47 -118 c11 -13 10 -19 -8 -36 -17 -18 -23 -19 -36 -8
-19 15 -20 32 -4 48 16 16 33 15 48 -4z"/>
<path d="M6598 6392 c-16 -10 -28 -24 -28 -32 0 -20 -163 -122 -183 -114 -19
7 -67 -23 -67 -42 0 -13 112 -198 135 -223 11 -12 19 -10 49 8 20 13 36 27 36
32 0 17 -30 69 -40 69 -5 0 -17 12 -27 26 -16 25 -16 27 2 40 27 20 29 18 44
-22 20 -55 33 -54 125 8 6 4 -3 23 -23 48 -27 34 -31 44 -20 51 8 5 20 8 28 6
15 -2 16 -5 50 -79 11 -27 24 -48 29 -48 9 0 82 49 82 55 0 14 -146 235 -154
234 -6 0 -23 -8 -38 -17z"/>
<path d="M3550 6246 c-29 -10 -42 -25 -75 -89 -39 -76 -40 -76 -25 -118 14
-39 23 -46 125 -101 96 -52 115 -59 150 -54 46 5 63 24 107 109 28 56 29 61
16 100 -12 40 -20 46 -128 104 -63 35 -119 62 -125 62 -5 0 -26 -6 -45 -13z
m198 -203 c1 -10 -4 -27 -12 -38 -14 -19 -15 -19 -83 14 -38 18 -80 41 -92 50
-21 16 -22 21 -11 42 7 13 18 27 24 31 16 10 170 -78 174 -99z"/>
<path d="M4960 6189 c0 -5 5 -7 10 -4 6 3 10 8 10 11 0 2 -4 4 -10 4 -5 0 -10
-5 -10 -11z"/>
<path d="M4685 6110 c-3 -5 -2 -10 4 -10 5 0 13 5 16 10 3 6 2 10 -4 10 -5 0
-13 -4 -16 -10z"/>
<path d="M4608 6084 c-16 -8 -28 -19 -28 -25 0 -6 15 -2 33 9 17 11 39 22 47
25 11 4 9 6 -5 6 -11 0 -32 -7 -47 -15z"/>
<path d="M6817 6050 c-16 -5 -34 -16 -40 -25 -16 -21 -192 -76 -205 -63 -13
13 -82 -9 -82 -25 0 -25 38 -132 46 -132 31 1 74 19 74 30 0 14 67 41 77 32 3
-3 -16 -28 -41 -55 -25 -27 -46 -51 -46 -54 0 -3 32 -14 71 -23 85 -21 79 -37
-16 -40 -36 -1 -70 -6 -76 -12 -7 -7 -5 -30 9 -74 18 -63 19 -64 52 -62 20 1
40 9 49 21 20 24 148 63 219 66 71 3 77 11 57 79 l-16 55 -72 17 c-40 10 -76
21 -81 26 -5 4 14 34 43 67 28 33 51 66 51 74 0 22 -31 108 -38 107 -4 0 -20
-5 -35 -9z"/>
<path d="M5030 5979 c-47 -17 -105 -34 -130 -37 l-45 -7 -3 -65 c-9 -190 80
-346 248 -434 l69 -37 56 26 c176 84 272 243 263 440 l-3 70 -45 7 c-25 3 -83
20 -130 37 -111 40 -168 40 -280 0z m272 -29 c41 -16 94 -32 117 -36 l43 -7
-4 -91 c-3 -75 -9 -102 -34 -156 -37 -79 -103 -148 -190 -196 l-64 -36 -64 36
c-84 47 -168 138 -196 213 -14 36 -24 91 -27 144 l-6 86 44 7 c24 4 76 20 114
36 97 40 169 40 267 0z"/>
<path d="M5120 5943 c-8 -2 -37 -14 -63 -24 -27 -11 -68 -24 -90 -27 -41 -7
-42 -8 -45 -51 -10 -134 70 -275 198 -347 54 -31 70 -28 148 31 96 72 152 184
152 302 0 49 -2 53 -27 59 -16 3 -65 19 -111 35 -78 27 -127 34 -162 22z m70
-98 c18 -55 32 -63 95 -59 30 2 55 1 55 -4 0 -4 -20 -18 -45 -32 -49 -27 -53
-39 -30 -94 18 -43 13 -44 -40 -11 -50 31 -62 31 -107 0 -50 -34 -60 -32 -42
10 22 53 18 68 -26 93 -22 12 -40 26 -40 31 0 5 26 9 57 10 65 1 66 2 83 54
15 46 25 47 40 2z"/>
<path d="M4496 5955 c-9 -14 -13 -25 -9 -25 10 0 36 40 30 46 -2 3 -12 -7 -21
-21z"/>
<path d="M5870 5929 c0 -8 7 -24 15 -35 18 -24 19 -7 0 26 -9 16 -14 19 -15 9z"/>
<path d="M3326 5783 c-47 -178 -47 -178 8 -192 25 -6 47 -11 50 -11 12 0 25
74 15 86 -5 7 -6 14 -2 17 14 9 203 -47 203 -60 0 -12 67 -36 80 -28 7 4 35
117 35 140 0 13 -67 25 -81 14 -6 -5 -47 1 -105 17 -102 28 -127 41 -92 50 18
5 33 38 33 75 0 8 -64 29 -91 29 -12 0 -25 -33 -53 -137z"/>
<path d="M4441 5882 c-7 -13 -11 -28 -8 -35 2 -7 9 -2 16 11 7 13 11 28 8 35
-2 7 -9 2 -16 -11z"/>
<path d="M5900 5869 c0 -4 7 -23 15 -42 8 -20 16 -53 16 -74 1 -21 3 -30 6
-19 7 28 -6 101 -22 122 -8 11 -15 16 -15 13z"/>
<path d="M4417 5823 c-4 -3 -7 -13 -7 -22 1 -13 3 -13 11 2 11 19 8 33 -4 20z"/>
<path d="M5855 5648 c-24 -53 -28 -77 -29 -148 0 -106 15 -139 89 -200 44 -36
53 -49 49 -67 -4 -13 -2 -23 3 -23 10 0 231 148 431 290 96 67 129 96 119 101
-8 5 -137 9 -288 9 l-274 1 -6 -53 c-9 -82 -19 -128 -28 -128 -5 0 -16 26 -27
58 l-18 57 -9 -35 c-16 -62 -21 -66 -25 -17 -3 51 22 147 40 147 5 0 12 -9 15
-20 3 -11 10 -20 15 -20 7 0 8 18 3 48 -12 83 -23 83 -60 0z"/>
<path d="M4371 5638 c-1 -17 -23 -18 -317 -18 -180 0 -313 -4 -310 -9 6 -9
337 -263 420 -322 99 -70 116 -79 110 -64 -6 16 4 20 21 7 20 -14 72 -108 89
-162 29 -85 35 -98 35 -77 1 9 6 17 11 17 6 0 10 -8 11 -17 2 -28 21 48 21 82
0 17 -6 52 -13 78 -11 42 -11 50 4 64 9 9 28 17 42 18 28 1 31 -5 13 -23 -9
-9 -8 -12 5 -12 20 0 22 -11 5 -28 -22 -22 2 -26 25 -4 40 38 38 24 -4 -30
-29 -39 -39 -60 -35 -78 10 -57 39 -146 49 -153 19 -12 78 -26 194 -47 114
-20 149 -18 199 15 32 20 120 52 169 61 22 3 48 13 57 21 15 13 21 12 55 -15
21 -16 53 -32 72 -36 19 -3 52 -23 77 -46 58 -53 89 -53 196 3 46 24 104 51
130 61 65 24 91 67 92 152 1 35 3 64 5 64 2 0 10 -8 18 -17 13 -16 14 -14 10
24 -5 39 -4 41 13 30 10 -6 21 -20 25 -32 5 -18 6 -19 16 -3 14 25 -14 76 -47
84 -62 16 -298 -93 -447 -205 -59 -44 -114 -81 -122 -81 -28 0 -43 38 -34 85
11 59 20 75 69 118 45 42 40 48 -11 14 -19 -12 -45 -44 -59 -70 -27 -52 -36
-57 -45 -28 -3 11 -21 25 -39 31 -20 6 -44 27 -64 55 -24 35 -39 45 -69 51
-21 3 -56 16 -78 29 -22 12 -46 20 -53 18 -7 -3 -21 2 -30 10 -11 10 -23 13
-31 8 -22 -14 -4 -29 42 -36 23 -4 59 -16 79 -26 21 -11 48 -19 61 -19 24 0
56 -28 77 -68 6 -13 27 -30 46 -38 21 -9 36 -23 40 -38 7 -29 1 -42 -29 -57
-22 -12 -22 -12 -3 10 25 27 9 49 -22 32 -38 -20 -85 -11 -170 33 -95 50 -85
26 13 -29 61 -35 69 -45 18 -23 -44 20 -234 147 -277 186 -73 65 -197 98 -256
67 -18 -9 -40 -13 -55 -9 -32 8 -33 -15 -4 -75 26 -54 19 -63 -12 -16 -13 19
-27 35 -31 35 -5 0 -8 5 -8 12 0 6 -10 22 -22 35 -17 18 -18 23 -6 23 26 0
114 87 137 135 36 78 41 235 7 235 -14 0 -46 -67 -46 -95 0 -8 -9 -19 -20 -25
-19 -10 -20 -8 -20 35 0 26 5 55 11 66 6 11 8 25 5 32 -2 7 -5 4 -5 -5z m54
-160 c-20 -62 -32 -78 -41 -55 -3 9 6 42 21 74 32 68 44 56 20 -19z m1205
-373 c-10 -12 -16 -13 -27 -3 -13 10 -12 14 3 25 24 17 42 0 24 -22z m-885 -5
c0 -22 -29 -18 -33 3 -3 14 1 18 15 15 10 -2 18 -10 18 -18z m-308 -67 c-3
-10 -5 -4 -5 12 0 17 2 24 5 18 2 -7 2 -21 0 -30z"/>
<path d="M6764 5435 l-28 -85 -93 0 c-51 0 -93 -3 -93 -7 0 -5 32 -30 70 -56
41 -28 70 -55 70 -65 0 -9 -11 -48 -24 -87 -14 -38 -23 -72 -21 -74 2 -2 38
20 80 48 l76 52 72 -51 c46 -32 73 -46 75 -38 1 7 -9 45 -22 85 l-25 72 28 23
c15 13 50 39 77 58 l49 35 -97 3 -97 3 -28 84 c-15 47 -30 85 -34 85 -4 0 -19
-38 -35 -85z"/>
<path d="M3447 5483 c-2 -4 -15 -39 -27 -78 -13 -38 -25 -72 -27 -75 -3 -3
-48 -7 -100 -10 l-96 -5 77 -54 c42 -30 76 -57 76 -61 0 -3 -11 -40 -25 -80
-14 -41 -24 -78 -23 -82 2 -5 35 14 75 42 39 27 74 50 78 50 4 0 39 -23 77
-51 38 -28 72 -48 74 -46 3 3 -8 41 -23 87 l-28 81 26 22 c14 12 48 38 75 57
l49 35 -94 5 -94 5 -26 77 c-27 79 -36 95 -44 81z"/>
<path d="M5515 5280 c-4 -6 5 -10 19 -10 14 0 26 5 26 10 0 6 -9 10 -19 10
-11 0 -23 -4 -26 -10z"/>
<path d="M5454 5247 c-59 -32 -113 -77 -92 -77 9 0 37 17 61 38 24 20 53 42
63 49 31 20 12 14 -32 -10z"/>
<path d="M5487 5129 c-32 -16 -90 -53 -129 -83 -39 -30 -77 -52 -84 -49 -8 3
-14 -1 -14 -11 0 -25 25 -19 70 19 39 33 103 76 195 130 54 33 33 29 -38 -6z"/>
<path d="M4474 4988 c3 -13 6 -40 6 -60 0 -40 20 -60 73 -73 39 -10 34 9 -7
23 -30 11 -35 18 -41 59 -8 57 -14 73 -27 73 -6 0 -8 -10 -4 -22z"/>
<path d="M5164 4903 c1 -37 0 -38 -31 -35 -28 3 -33 0 -39 -25 -19 -85 -28
-113 -55 -159 -16 -28 -29 -59 -29 -68 0 -29 37 -56 78 -56 32 0 41 5 50 25
15 32 46 28 77 -11 l24 -29 38 20 c33 17 38 25 41 59 4 42 -33 156 -68 214
-11 18 -32 37 -48 43 -25 10 -25 12 -10 23 13 10 15 15 6 24 -23 23 -35 13
-34 -25z"/>
<path d="M5085 4905 c-24 -10 -31 -21 -36 -52 -11 -64 1 -57 15 9 4 19 15 30
31 34 14 3 25 10 25 15 0 5 -1 9 -2 8 -2 0 -16 -7 -33 -14z"/>
<path d="M4960 4840 c-55 -59 -105 -71 -190 -46 -66 20 -75 14 -21 -13 47 -25
135 -28 184 -7 35 14 87 69 87 91 0 28 -16 21 -60 -25z"/>
<path d="M5706 4875 c-21 -7 -55 -27 -75 -43 -50 -40 -75 -52 -109 -52 -45 0
-127 28 -147 50 -10 11 -22 20 -27 20 -17 0 -7 -32 17 -55 22 -23 32 -25 119
-25 94 0 95 0 143 37 26 20 68 44 92 53 53 21 42 34 -13 15z"/>
<path d="M4314 4815 c-10 -24 3 -58 40 -106 29 -38 111 -101 92 -71 -5 8 2 8
24 1 32 -12 43 -34 11 -24 -22 7 -18 13 -72 -145 -98 -284 -151 -451 -146
-456 3 -3 18 3 34 14 15 11 98 66 183 123 297 197 269 174 268 216 -2 40 34
133 50 133 21 0 29 -54 16 -100 -16 -53 -18 -126 -4 -135 6 -4 10 8 10 27 0
41 36 152 55 168 9 8 17 7 29 -5 20 -21 20 -30 -3 -115 -16 -56 -17 -70 -6
-70 8 0 22 29 34 70 23 74 42 93 67 68 14 -13 14 -22 0 -75 -19 -73 -19 -73
-3 -73 7 0 19 27 27 63 12 50 19 63 36 65 27 4 34 -21 27 -94 -5 -44 -3 -54 9
-54 11 0 17 17 21 65 7 78 11 85 41 85 33 0 46 -21 53 -84 7 -69 18 -65 26 10
3 32 12 64 21 72 12 13 16 11 30 -16 8 -16 18 -48 22 -71 6 -39 13 -48 26 -36
3 3 1 24 -4 45 -8 29 -7 48 2 70 25 61 52 30 70 -80 13 -80 29 -124 30 -82 0
13 -5 55 -11 94 -11 70 -3 118 20 118 13 0 31 -57 31 -101 0 -21 4 -40 9 -44
17 -10 18 9 6 70 -9 42 -9 67 -2 82 20 44 43 20 55 -59 7 -47 6 -60 -7 -74
-15 -17 -15 -17 1 -5 22 16 25 14 205 -117 192 -140 239 -172 253 -172 16 0 9
28 -86 327 -46 144 -84 269 -84 278 0 8 16 29 35 46 42 39 45 54 6 32 -27 -16
-31 -16 -81 5 -33 14 -57 19 -63 13 -12 -12 0 -31 21 -31 9 0 31 -9 47 -20 35
-23 20 -27 -21 -5 -16 8 -52 15 -80 15 -41 0 -55 -5 -74 -25 -33 -35 -53 -33
-45 5 4 19 3 30 -4 30 -16 0 -25 -50 -12 -63 6 -6 11 -21 11 -33 0 -12 10 -28
23 -37 21 -13 23 -23 25 -104 2 -72 -1 -93 -13 -103 -23 -19 -33 -3 -40 66 -7
56 -5 63 16 83 21 20 21 21 3 21 -10 0 -25 -9 -32 -21 -9 -14 -20 -19 -33 -16
-11 3 -26 -1 -33 -9 -8 -8 -22 -14 -32 -14 -10 0 -28 -10 -41 -22 -22 -20 -24
-20 -42 -4 -18 16 -20 16 -41 -11 -20 -26 -23 -27 -34 -10 -18 23 -41 21 -59
-5 -14 -22 -15 -22 -34 -5 -22 19 -55 22 -83 7 -13 -7 -21 -7 -25 0 -3 5 -21
10 -39 10 -19 0 -39 7 -46 15 -7 8 -24 15 -38 15 -14 0 -35 11 -48 25 -17 19
-30 24 -47 20 -18 -5 -28 0 -41 19 -9 14 -25 26 -36 26 -11 0 -29 5 -40 12
-25 16 -40 0 -17 -17 15 -10 17 -21 12 -44 -4 -17 -11 -33 -16 -36 -5 -4 -9
-15 -9 -26 0 -10 -4 -19 -10 -19 -13 0 -13 51 0 86 7 19 7 30 -1 40 -8 10 -7
21 8 45 19 30 19 32 2 65 -26 53 -39 64 -69 64 -29 0 -63 -32 -75 -71 -4 -13
-15 -19 -33 -19 -21 0 -24 3 -12 10 17 11 20 7 -55 53 -61 36 -101 86 -91 112
3 10 -5 20 -24 30 -36 19 -39 19 -46 0z"/>
<path d="M4720 4745 c20 -22 25 -36 24 -81 0 -46 3 -54 18 -54 44 0 -1 150
-47 158 -18 4 -18 1 5 -23z"/>
<path d="M3470 4739 c-31 -13 -40 -26 -40 -66 0 -41 -18 -43 -27 -3 -7 38 -15
43 -46 31 -20 -8 -25 -18 -30 -61 -6 -46 -2 -64 34 -149 55 -131 103 -170 168
-137 28 15 31 21 31 61 0 49 15 59 30 20 19 -50 70 -18 70 43 0 49 -73 217
-108 247 -29 26 -44 29 -82 14z m86 -155 c15 -36 11 -79 -7 -68 -14 9 -40 76
-35 91 9 23 27 14 42 -23z m-93 -51 c14 -35 14 -43 2 -53 -11 -10 -18 -5 -35
22 -23 38 -25 54 -7 73 15 16 20 11 40 -42z"/>
<path d="M5331 4729 c-1 -26 36 -85 47 -75 3 3 -2 14 -10 23 -9 10 -20 32 -26
48 -10 30 -10 30 -11 4z"/>
<path d="M5621 4727 c-14 -6 -27 -19 -29 -27 -4 -11 0 -11 21 3 15 9 35 17 47
17 11 0 20 5 20 10 0 14 -30 12 -59 -3z"/>
<path d="M4961 4664 c-17 -26 -31 -53 -31 -58 1 -10 72 -66 95 -75 6 -2 -7 14
-27 36 -21 21 -38 44 -38 50 0 7 10 28 21 48 33 55 14 54 -20 -1z"/>
<path d="M6693 4683 c-44 -39 -105 -187 -101 -245 3 -41 5 -44 83 -92 l80 -49
35 20 c28 15 45 40 85 119 34 68 49 110 49 136 -2 75 -7 81 -92 111 -43 15
-85 27 -93 27 -8 0 -29 -12 -46 -27z m88 -129 c33 -15 59 -30 59 -35 0 -20
-35 -79 -47 -79 -8 0 -36 11 -63 25 -53 27 -60 43 -38 90 14 31 17 31 89 -1z"/>
<path d="M5370 4625 c-1 -23 -26 -56 -55 -73 -15 -9 -16 -11 -4 -12 8 0 30 15
48 34 27 28 31 37 22 53 -10 17 -10 17 -11 -2z"/>
<path d="M3682 4404 c-12 -8 -22 -22 -22 -30 0 -8 -31 -34 -70 -59 -66 -43
-70 -47 -70 -83 0 -43 17 -78 82 -165 37 -51 55 -66 88 -76 46 -14 43 -15 118
54 24 22 49 40 55 40 18 1 57 29 57 40 -1 5 -23 35 -50 65 -42 46 -52 53 -67
44 -10 -6 -20 -21 -23 -32 -5 -21 -93 -102 -110 -102 -12 0 -50 50 -50 66 0
18 88 78 124 84 51 9 53 30 11 99 -21 34 -41 64 -45 66 -4 2 -16 -3 -28 -11z"/>
<path d="M6538 4351 c-23 -10 -51 -34 -70 -63 -18 -26 -53 -72 -77 -103 -42
-54 -43 -56 -26 -75 10 -11 27 -20 39 -20 24 0 106 -77 106 -101 0 -9 10 -24
21 -35 21 -19 22 -19 65 30 86 98 133 177 136 230 3 48 2 49 -42 80 -103 72
-111 75 -152 57z m49 -141 c29 -23 53 -44 53 -49 0 -5 -9 -20 -21 -35 l-20
-26 -54 43 c-30 23 -54 47 -54 52 -1 12 27 55 36 55 3 0 30 -18 60 -40z"/>
<path d="M3917 4082 c-9 -10 -17 -26 -17 -36 0 -26 -79 -106 -105 -106 -12 0
-30 -8 -39 -19 -16 -18 -14 -21 41 -76 32 -32 89 -83 127 -114 l68 -55 24 29
c13 17 24 33 24 36 0 10 -67 59 -80 59 -16 0 -60 31 -60 42 0 18 83 108 100
108 16 0 50 29 50 43 0 7 -97 100 -109 105 -4 1 -15 -6 -24 -16z"/>
<path d="M6229 4014 c-13 -14 -45 -42 -71 -61 -27 -19 -48 -40 -48 -46 0 -6
11 -22 24 -36 21 -22 25 -37 27 -102 1 -42 -2 -82 -6 -89 -8 -13 13 -60 27
-60 5 0 38 21 74 46 65 47 67 51 32 90 -18 20 -18 21 22 53 l41 33 20 -26 c11
-14 25 -26 30 -26 6 0 37 25 70 57 55 52 58 58 45 77 -10 16 -25 21 -57 22
-24 0 -69 8 -99 17 -44 14 -58 23 -68 47 -17 37 -31 38 -63 4z m54 -141 c9 -9
-13 -34 -24 -27 -14 8 -11 34 4 34 8 0 17 -3 20 -7z"/>
<path d="M5925 3799 c-38 -21 -99 -51 -135 -66 -36 -15 -67 -28 -68 -29 -8 -5
20 -74 29 -74 22 0 79 30 79 42 0 22 26 -14 49 -69 12 -30 19 -63 16 -75 -3
-13 0 -31 7 -41 12 -16 17 -15 86 18 39 20 72 40 72 46 0 20 -21 49 -35 49 -8
0 -28 27 -45 60 -33 66 -37 82 -16 74 7 -3 30 5 50 17 l37 21 -18 31 c-10 17
-23 32 -28 33 -6 1 -41 -15 -80 -37z"/>
<path d="M4303 3781 c-6 -10 -9 -28 -7 -39 8 -28 -42 -121 -70 -132 -22 -8
-36 -28 -36 -51 0 -6 52 -35 116 -66 99 -48 121 -55 156 -50 22 3 46 11 53 19
7 7 25 50 39 95 l27 82 -23 35 c-13 20 -27 36 -31 36 -5 0 -51 20 -103 45 -51
25 -97 45 -101 45 -5 0 -13 -8 -20 -19z m141 -107 c9 -3 16 -16 16 -28 0 -23
-45 -126 -55 -126 -6 0 -46 19 -54 26 -2 2 9 33 24 69 27 63 37 71 69 59z"/>
<path d="M5535 3648 c-94 -27 -117 -49 -113 -108 3 -43 5 -46 48 -67 l45 -21
-38 -7 c-32 -6 -37 -11 -37 -35 0 -22 7 -30 41 -45 40 -18 42 -18 135 4 84 20
97 27 121 57 24 32 25 38 14 75 -9 29 -20 43 -39 50 -15 5 -34 12 -42 15 -10
4 -5 10 17 19 25 11 30 18 26 35 -6 23 -58 51 -90 49 -10 -1 -49 -10 -88 -21z
m75 -73 c10 -12 8 -16 -15 -25 -38 -14 -65 -12 -65 5 0 15 30 33 56 34 6 1 17
-6 24 -14z m30 -110 c0 -17 -44 -38 -69 -33 -23 5 -26 35 -4 41 41 11 73 7 73
-8z"/>
<path d="M4640 3641 c-30 -14 -37 -26 -61 -101 -16 -47 -26 -93 -23 -102 11
-37 61 -65 147 -83 142 -30 165 -15 183 116 l13 94 -28 29 c-22 22 -47 32
-113 45 -78 16 -88 17 -118 2z m128 -71 c15 0 15 -33 1 -100 -9 -44 -14 -50
-35 -50 -14 0 -34 4 -44 10 -17 9 -17 13 -4 67 22 86 22 86 47 79 12 -3 28 -6
35 -6z"/>
<path d="M5200 3601 l-95 -6 -3 -32 c-2 -19 1 -33 7 -33 7 0 11 -29 11 -75 0
-58 -4 -77 -15 -81 -9 -4 -15 -19 -15 -35 l0 -29 93 1 c93 0 223 11 230 19 3
3 2 20 0 39 l-6 33 -46 -6 c-25 -3 -63 -9 -83 -12 -25 -4 -38 -2 -38 5 0 6 0
14 0 18 0 3 22 7 50 8 28 1 53 4 55 7 3 3 3 24 -1 48 -7 42 -7 42 -43 35 -20
-3 -44 -8 -53 -11 -13 -4 -18 0 -18 15 0 22 8 24 88 21 54 -2 70 11 64 50 -5
34 11 32 -182 21z"/>
<path d="M2075 7018 c-27 -11 -79 -24 -115 -27 l-65 -6 -8 -45 c-4 -25 -6 -85
-3 -135 5 -105 33 -193 89 -277 39 -58 118 -138 138 -138 6 0 42 16 80 36 135
71 243 223 283 399 14 65 14 71 -1 83 -9 6 -24 12 -32 12 -20 0 -79 35 -109
65 -58 58 -164 72 -257 33z m127 -143 l13 -60 60 -8 c106 -15 109 -21 33 -55
-75 -34 -75 -34 -58 -122 6 -29 8 -55 6 -58 -3 -2 -29 16 -58 42 -29 25 -59
46 -68 46 -8 0 -39 -11 -68 -25 -30 -14 -58 -25 -64 -25 -5 0 4 24 21 54 17
29 31 60 31 69 0 8 -23 36 -51 61 -29 26 -49 49 -45 53 3 3 36 2 73 -4 38 -6
73 -8 79 -6 5 2 23 29 38 60 16 32 31 52 36 47 5 -5 15 -36 22 -69z"/>
</g>
</svg>
